<?xml version="1.0" encoding="UTF-8" standalone="no"?>
<!-- Created with Inkscape (http://www.inkscape.org/) -->

<svg
   width="34.18972mm"
   height="34.368835mm"
   viewBox="0 0 34.18972 34.368835"
   version="1.1"
   id="svg5"
   xml:space="preserve"
   inkscape:version="1.2 (dc2aedaf03, 2022-05-15)"
   sodipodi:docname="logo.svg"
   xmlns:inkscape="http://www.inkscape.org/namespaces/inkscape"
   xmlns:sodipodi="http://sodipodi.sourceforge.net/DTD/sodipodi-0.dtd"
   xmlns="http://www.w3.org/2000/svg"
   xmlns:svg="http://www.w3.org/2000/svg"><sodipodi:namedview
     id="namedview7"
     pagecolor="#ffffff"
     bordercolor="#666666"
     borderopacity="1.0"
     inkscape:showpageshadow="2"
     inkscape:pageopacity="0.0"
     inkscape:pagecheckerboard="0"
     inkscape:deskcolor="#d1d1d1"
     inkscape:document-units="mm"
     showgrid="false"
     inkscape:zoom="4.1373683"
     inkscape:cx="376.68873"
     inkscape:cy="574.2781"
     inkscape:window-width="1920"
     inkscape:window-height="986"
     inkscape:window-x="540"
     inkscape:window-y="1609"
     inkscape:window-maximized="1"
     inkscape:current-layer="layer1" /><defs
     id="defs2" /><g
     id="g1612"
     transform="translate(-83.962301,-134.84427)"><g
       id="g1679"
       inkscape:export-filename="g1679.svg"
       inkscape:export-xdpi="350"
       inkscape:export-ydpi="350"><path
         style="fill:#f4ca21;stroke-width:0.0846667"
         d="m 99.409691,169.14294 c -3.839483,-0.51987 -7.285046,-3.1879 -8.817117,-6.73676 1.509614,-1.75945 3.926201,-1.17498 5.7908,-0.55755 1.371889,0.18632 1.517507,1.5856 1.375317,2.69093 0,1.33334 0,2.66667 0,4.00001 0.955766,0.58272 3.775189,0.58276 3.789839,0.67197 -0.71329,0.004 -1.42857,0.006 -2.138839,-0.0686 z m -2.54,-7.5778 c -2.145089,0.18838 -4.014394,-2.18287 -3.128262,-4.19911 0.877778,-1.82962 -0.06745,-4.01925 -2.211515,-4.07862 -1.082397,-1.47205 1.317441,-2.82365 2.121583,-3.90112 0.684233,-0.96202 1.890814,-1.09368 2.036691,0.2387 1.325474,1.16042 2.398044,2.80136 2.097258,4.63832 -0.006,2.50493 0.04466,5.01353 -0.134005,7.51421 -0.264261,-0.0566 -0.522708,-0.13652 -0.78175,-0.21238 z m -2.185827,-2.33487 c -0.217512,-0.0952 0.212682,0.55012 0,0 z m -0.48117,-0.0265 c -0.342364,-0.64556 -0.281793,0.58052 0,0 z m 0.420759,-1.4605 c -0.211218,-1.10981 0.02241,1.37221 0,0 z m 0.595241,-8.2663 c -0.270502,-0.32346 -0.414539,0.22849 0,0 z m 1.789617,0.81928 c -1.456863,-0.25218 0.891155,-3.79758 -0.563019,-1.76043 -0.369928,0.80856 0.385655,-1.46421 -0.494672,-0.2358 0.413835,-1.2992 3.242464,-1.47033 4.7601,-1.54531 0.82135,-0.01 2.51219,-0.0208 0.73818,0.0305 -1.809412,-0.27432 -4.494054,0.39902 -3.671306,2.75758 0.04067,0.6299 0.01806,2.12434 -0.769283,0.75347 z m 5.768489,-3.47016 c 0.66379,-0.31033 0.10682,0.23812 0,0 z"
         id="path1626" /><path
         style="fill:#2fa9df;stroke-width:0.0846667"
         d="m 87.333894,163.07732 c -0.185974,-0.38348 0.508601,0.59903 0,0 z m 1.873467,0.11489 c 0.155443,-0.33988 0.276845,0.17293 0,0 z m -2.381467,-0.53823 c -0.185968,-0.38346 0.508602,0.599 0,0 z m 3.185458,-0.008 c 0.506605,-0.78395 0.255856,0.18176 0,0 z m -3.648369,-0.37316 c -0.468326,-0.58305 0.697345,0.70016 0,0 z m -0.592667,-0.508 c -0.483793,-0.59397 0.737731,0.72068 0,0 z m -0.468422,-0.381 c -0.181139,-0.39949 0.567283,0.69683 0,0 z m -0.547578,-0.46566 c -0.483793,-0.59397 0.737731,0.72068 0,0 z m -0.454727,-0.35635 c 0.346962,-0.59584 0.407154,0.1355 0,0 z m 4.55323,-2.38966 c 0.550141,-0.21198 -0.09639,0.21811 0,0 z m 0.423333,0 c 0.550141,-0.21198 -0.09639,0.21811 0,0 z m 5.688542,-10.19091 c -2.275967,-0.86186 -4.753799,-0.5113 -7.086,-0.18318 -2.395754,-0.36345 -2.685904,-3.1682 -3.472951,-4.99587 -0.590449,-0.84322 -0.794993,-2.64169 0.699127,-1.53389 2.176475,0.47374 4.609897,-0.79069 6.612878,0.48057 0.56446,-0.98963 0.493206,-2.6651 1.742312,-3.51478 1.012388,-0.85497 1.476164,-2.72422 2.007053,-3.38982 1.53927,0.98484 2.158066,2.89016 3.491251,4.11068 0.924118,1.73794 -0.46366,3.53576 -1.626913,4.75586 -0.965381,1.23084 -1.70212,3.2817 -2.366757,4.27043 z m -5.774931,-0.48275 c 1.574209,-0.70544 4.591598,0.68721 5.355402,-0.43349 -0.958117,-1.72676 -1.696784,-3.66059 -2.961786,-5.17035 -1.882571,-1.31578 -4.213352,0.0248 -6.2813,-0.50684 -2.348532,-0.56541 -0.128062,1.9853 -0.152919,3.0412 0.384493,1.92696 1.873657,3.83163 4.040603,3.06948 z"
         id="path1624" /><path
         style="fill:#f2a220;stroke-width:0.0846667"
         d="m 99.579031,169.02962 c -1.62577,0.31535 -2.11777,-1.5012 -1.82034,-2.74459 0,-1.26549 0,-2.53099 0,-3.79648 -1.640312,-0.55233 -3.447444,-1.47447 -5.147677,-1.26783 -0.57432,0.3107 -2.741532,1.40775 -1.109344,0.43493 1.594088,-0.24982 2.986401,-1.35417 1.995612,-3.03703 0.112872,-1.75324 1.12948,-4.466 -1.321392,-5.05571 -0.931894,-0.37304 -0.846441,-0.52237 0.02751,-0.14582 2.273142,0.49841 1.949711,3.19204 1.399973,4.8674 -0.391108,2.08133 2.187051,3.97034 3.980587,3.04588 0.465821,-1.8936 -0.02202,-3.95839 0.177723,-5.92705 0.16433,-1.95013 0.109217,-4.00981 -1.638613,-5.26967 -1.158622,-0.82893 -0.938416,-2.5282 0.124238,-2.12046 0.535021,-0.3606 -0.359388,1.70854 0.330329,0.27965 1.271204,-1.53329 -0.921452,1.33338 0.249423,1.886 1.250149,1.54264 0.927413,-0.83956 0.829726,-1.62823 0.58346,-2.40761 3.396134,-1.64966 5.202164,-1.6864 1.43444,-0.28813 0.44815,1.45918 0.44199,1.78462 -0.0873,-0.87027 -0.10622,-1.94676 -0.19383,-0.41672 -0.0249,0.77367 0.17422,1.80422 -0.21076,0.43083 -0.72138,-2.24102 0.41063,1.96418 0.11359,1.2682 -0.2291,-0.72967 -0.82397,-1.36615 -0.30225,-0.23035 0.99544,2.15277 0.88187,4.56945 1.0998,6.87733 -0.75186,0.81654 -1.9283,2.9232 -2.4299,2.88274 -0.93993,-2.9339 -2.170786,-5.7811 -3.926446,-8.32599 -0.476345,-0.66807 -1.725114,-2.74581 -1.664722,-2.47922 0.381245,1.13706 -1.015775,-0.99685 -0.106707,0.40676 1.736892,2.4377 3.370174,4.97621 4.394125,7.80772 1.09832,2.85477 1.7859,5.85917 2.13419,8.8954 -1.72393,-2.4202 -4.413802,-4.26243 -7.413912,-4.55842 1.913748,0.9784 4.290512,1.27648 5.679022,3.08092 1.26902,1.22237 2.17756,2.93098 2.11181,4.72724 0.77517,-2.13135 -0.29766,-4.37436 -0.52377,-6.5171 -0.41745,-1.79742 0.15273,-4.96151 2.41359,-4.98436 0.98323,0.45904 0.35782,1.67709 0.52202,2.53668 0,2.72604 0,5.45207 0,8.17811 3.19911,-0.97571 5.56829,-3.75017 6.72056,-6.80925 -1.48501,5.0193 -6.96264,8.49707 -12.138319,7.61027 z m 2.802459,-20.9256 c -0.52562,-0.21773 0.19878,0.59718 0,0 z m 0.0339,-0.67387 c -0.37891,-0.46895 -0.0828,0.60518 0,0 z m 0.48875,-0.25553 c -0.1988,-0.54245 -0.1674,0.74376 0,0 z m -0.44642,-0.12047 c -0.0688,-0.32458 -0.20676,0.35329 0,0 z m 9.2829,14.13933 c -0.0735,-0.76961 0.34224,-0.008 0,0 z m 0.17589,-0.635 c -0.11117,-0.53126 0.32581,-0.59538 0,0 z m -17.283768,-1.27705 c 0.102452,-0.30185 0.0058,0.39763 0,0 z m -0.627573,-0.007 c -0.181446,-0.52844 0.500778,0.1959 0,0 z m 18.166531,-0.19756 c 0.0467,-0.58018 0.0467,0.58012 0,0 z m -17.648674,-1.2065 c -0.0091,-1.46571 0.202609,0.85085 0.0066,0.0636 z m 9.548804,-1.44299 c 0.28076,-0.51874 -0.015,0.35533 0,0 z m 0.0503,-0.48318 c 0.0629,-0.47273 0.0629,0.47273 0,0 z m 1.95674,0.026 c 0.66379,-0.31033 0.10682,0.23812 0,0 z m -2.07246,-1.04199 c 0.0576,-0.63083 -0.51055,-3.09984 -0.13362,-2.46139 0.12802,0.44562 0.34132,2.87305 0.13362,2.46139 z m -0.47301,-3.50891 c -0.24001,-1.13015 0.32925,0.66371 0,0 z m 6.75603,-0.16372 c 0.34635,-0.74365 0.34039,-0.006 0,0 z m -6.88622,-0.36315 c -0.45116,-0.6007 0.39675,0.0764 0,0 z m 7.41728,-0.95955 c 0.0252,-0.88685 0.0511,0.77734 0,0 z M 94.880097,149.4328 c 0.296272,-0.22692 0.492504,0.35709 0,0 z m 8.727353,-1.07331 c 0.10269,-0.3017 0.005,0.39795 0,0 z m 0.007,-0.54328 c 0.0629,-0.47273 0.0629,0.47273 0,0 z"
         id="path1622" /><path
         style="fill:#ea6e22;stroke-width:0.0846667"
         d="m 102.54215,168.96165 c 0.14904,-2.9838 -2.29152,-5.31662 -4.748909,-6.59044 -0.139626,-0.22592 1.905945,0.95513 2.381779,1.54656 1.42289,1.07901 2.35451,3.0794 2.55664,4.53421 0.13459,-2.83359 -0.96681,-5.55858 -0.89798,-8.37836 0.0243,-1.17962 2.22745,-2.51124 1.90633,-3.01339 -1.21086,0.17672 -1.54794,3.32643 -2.42447,2.48871 -1.21365,-3.56322 -2.68567,-7.13923 -5.173259,-10.01877 2.470077,3.42917 4.317639,7.29573 5.293049,11.4154 0.32075,1.48087 0.97015,3.97073 0.78287,4.8841 -1.46691,-1.5995 -3.007546,-3.29456 -5.106629,-4.04291 2.071019,0.42846 3.419129,2.38562 4.951349,3.40251 0.11475,-1.52844 -0.56779,-3.08386 -0.80353,-4.61469 -1.08729,-4.22034 -3.00384,-8.24772 -5.739879,-11.65059 -0.17696,-0.57148 0.687157,0.64145 0.294393,-0.38423 1.218489,2.18837 2.879372,4.11472 3.826013,6.46101 0.763053,1.31038 1.497683,4.37029 1.991493,4.68298 0.82471,-1.72386 2.90305,-2.9624 2.03027,-5.17767 0.21548,-1.6498 -0.97301,-4.69869 -1.04203,-5.33698 0.48164,0.94304 0.76985,1.45782 0.24195,0.14795 -0.25674,-0.91353 -0.19395,-1.95734 0.0524,-0.43111 0.58048,1.55219 -0.0477,-2.5011 0.31845,-1.14163 -0.14251,1.08332 0.38943,1.14344 0.1966,-0.0346 1.39112,-1.94157 3.70536,-2.86543 5.54054,-4.30659 1.32448,-0.66993 0.1488,1.84334 0.80656,2.53484 -0.0187,1.56353 -0.28944,-1.71788 -0.37226,-2.28893 -1.13506,-0.11173 -2.26112,1.38523 -3.45625,1.80167 -1.24079,0.6799 -2.48756,2.10013 -1.84334,3.6 1.00855,1.92669 0.90366,4.32882 1.65979,6.1647 1.68428,-1.15317 3.2731,-2.73965 4.71138,-4.27004 0.43884,-0.39915 -0.95406,1.37989 -1.46677,1.72891 -1.07627,0.99057 -2.28615,1.85164 -3.19884,3.00778 1.96763,1.00129 4.68606,0.62192 6.1502,2.52185 0.69145,1.7826 -0.58108,3.53576 -1.16961,5.16095 -1.25851,2.24386 -3.31878,4.08539 -5.79255,4.86328 0,-3.53875 0,-7.0775 0,-10.61625 -1.99408,-0.6383 -3.16063,1.99026 -3.03489,3.62507 0.19803,2.38214 0.861,4.70676 1.00161,7.09373 -0.0103,0.26244 -0.15096,0.55055 -0.42247,0.63098 z m 2.20502,-12.17647 c 0.10847,-0.48539 -0.44881,0.4824 0,0 z m -0.57016,-0.46227 c -0.26304,0.0568 -7.1e-4,0.44 0,0 z m 1.11172,-0.0418 c 0.65049,-0.78566 -0.98492,0.77313 0,0 z m -0.38282,-0.13729 c -0.005,-0.36977 -0.38244,0.65126 0,0 z m -0.74114,-0.30552 c -0.22188,0.1113 0.27758,0.48769 0,0 z m 1.17416,-0.13149 c -0.33698,-0.0281 -0.29016,0.62978 0,0 z m -1.30513,-2.15525 c 0.0608,-0.68635 -0.57137,-2.13975 -0.22187,-0.63987 0.0303,0.82445 0.32153,3.18737 0.26575,1.1137 -0.005,-0.15855 -0.0301,-0.31599 -0.0439,-0.47383 z m -0.43206,-2.30367 c -0.38678,-0.743 0.2908,1.11239 0,0 z m -0.16005,-0.52558 c -0.32256,-0.31909 0.3037,0.71736 0,0 z m 0.21684,-2.41406 c -0.21769,-0.0947 0.21322,0.55012 0,0 z m -0.002,-0.59795 c -0.22188,0.1113 0.27758,0.48769 0,0 z m -12.671409,14.20718 c 0.483703,-0.43683 0.536588,-0.0978 0,0 z m 4.783666,-0.26028 c -1.093996,-0.073 -0.904257,-0.50907 0.125876,-0.0247 0.749634,0.14107 -0.121523,0.0468 -0.125876,0.0247 z m 0.169334,-0.16933 c -0.568374,-0.26453 0.655606,0.11213 0.314773,0.0734 z m -4.021667,-0.0827 c 0.880971,-0.51835 -0.360104,0.40518 0,0 z m 0.931333,-0.381 c 0.712478,-0.48713 -0.137092,0.30655 0,0 z m 0.623241,-0.30568 c -1.004604,-1.07655 -4.011404,-2.26905 -3.963937,-2.97517 0.997502,0.91651 2.92447,2.41079 3.903708,2.1425 -0.126821,-1.83058 0.780792,-3.99722 -0.167475,-5.60741 -0.299897,-0.54658 -2.981831,-1.17358 -2.137356,-1.20244 2.07584,0.29701 3.493439,2.49922 2.41366,4.39576 -0.208195,0.9752 0.685286,2.7642 -0.0486,3.24676 z m -4.320791,-4.05465 c 0.07444,-1.09216 0.017,1.31899 0,0 z m 0.07824,-0.93134 c 0.0786,-0.61098 0.0083,0.78739 0,0 z m 0.07668,-0.55033 c 0.06284,-0.47258 0.06284,0.4726 0,0 z m 0.102221,-1.143 c 0.06695,-1.29032 0.01798,1.31664 0,0 z m -0.108905,-1.02306 c 0.10247,-0.30182 0.0058,0.39765 0,0 z m -0.13571,-0.38032 c 0.106018,-0.46504 0.679752,0.20005 0.115021,-0.0603 0.07127,0.0834 -0.144816,0.53308 -0.115021,0.0603 z m 0.721692,0.091 c -0.228161,-0.33019 0.803624,0.51504 0,0 z m 20.807925,-3.02684 c 0.0945,-0.70352 -0.90396,-3.3737 -0.11896,-1.44289 0.13765,0.32226 0.27431,2.61012 0.11896,1.44289 z m -8.49739,-1.4097 c -0.10986,-0.64639 0.41952,0.14219 0,0 z m 0.009,-0.72675 c -0.0951,-0.53173 0.41487,0.0928 0,0 z m 0.46481,-0.18981 c 0.0838,-0.90921 0.39924,0.21071 0,0 z m -0.33867,-0.31957 c 0.15206,-0.39231 0.16256,0.33481 0,0 z"
         id="path1620" /><path
         style="fill:#3bb349;stroke-width:0.0846667"
         d="m 112.25776,158.02679 c -1.95305,-1.18317 -4.18861,-1.78174 -6.41067,-2.22001 0.93486,-1.6449 2.81871,-2.43517 3.92485,-3.95474 1.62474,-1.48811 3.74364,-0.40273 5.38653,0.41187 0.79403,0.69689 2.8295,0.35861 2.99356,0.91021 -0.93794,1.65674 -2.32479,3.0635 -3.57124,4.46999 -0.66735,0.459 -1.54354,0.64347 -2.32303,0.38268 z"
         id="path1618" /><path
         style="fill:#2259ad;stroke-width:0.0846667"
         d="m 87.790698,163.28254 c -0.733582,-0.89081 -4.36132,-2.20298 -2.069753,-3.21886 1.358432,-0.68912 2.765239,-2.44334 4.406437,-1.4907 0.703241,0.86478 3.282901,1.38623 2.777994,2.31654 -1.877157,0.40186 -3.107025,2.74247 -5.114678,2.39303 z m -0.319004,-15.71517 c -2.243611,-0.6968 -2.035884,-3.46723 -3.106199,-5.14112 -0.711778,-1.2715 0.515045,-1.50158 1.408974,-0.90915 1.965489,0.25272 4.678531,-1.10636 6.095797,0.76244 1.083527,1.49165 1.762867,3.22287 2.740667,4.77893 -0.480591,1.34103 -2.6004,-0.28543 -3.759656,0.28157 -1.127423,0.0558 -2.246338,0.36157 -3.379583,0.22733 z"
         id="path1616" /><path
         style="fill:#c1262e;stroke-width:0.0846667"
         d="m 102.54673,167.9926 c -0.19837,-2.5753 -2.4699,-4.28828 -4.457787,-5.59637 -0.660445,-0.41276 -2.886056,-0.85525 -2.681939,-1.01792 2.756731,0.45146 5.160536,2.24029 6.726226,4.50824 0.33566,-1.88474 -0.55704,-3.69982 -0.85694,-5.53407 -1.04487,-3.86605 -2.682158,-7.62763 -5.199369,-10.76962 1.523171,1.38559 2.365566,3.33642 3.343934,5.11062 0.850145,1.8264 1.469455,3.7466 2.186085,5.62649 0.0696,-1.16357 1.80319,-3.46353 2.36008,-3.00147 -1.93899,1.00835 -2.6036,3.58453 -1.87768,5.55411 0.30578,1.76982 0.85783,4.84839 0.52914,5.85888 -0.0557,-0.24325 -0.0303,-0.49393 -0.0718,-0.73889 z m -11.900036,-5.95658 c 0.394877,-0.4489 0.415011,-0.12094 0.01209,0.0577 z m 0.508,-0.2917 c 0.112017,-0.24165 1.838786,-0.72934 0,0 z m 1.185333,-0.58601 c 0.484353,-0.38698 0.434623,-0.0416 -0.0017,0.0632 z m 0.884488,-0.33655 c -0.521757,-1.07501 -2.959627,-1.78214 -3.031264,-2.2035 0.944559,0.76266 2.680465,0.8794 3.031264,2.2035 z m -1.013578,-1.20347 c -1.879944,-0.62579 -3.832227,-2.58559 -2.774725,-4.65434 -0.08044,-0.86701 -0.330887,-3.18328 1.146851,-1.91926 2.034905,0.1269 3.980637,2.29128 2.90562,4.29532 -0.124932,1.02424 0.64743,3.86913 -1.169581,2.32056 l -0.09065,-0.0354 z m 12.407453,-2.87185 c 0.47772,-0.39427 -0.18265,0.41764 0,0 z m 0.53452,-0.52007 c 0.94843,-0.85055 -0.631,0.82687 0,0 z m -0.45155,0.0245 c 0.20036,-0.65961 0.34777,0.13758 0,0 z m 0.33867,-0.28321 c 0.25124,-0.63254 0.41597,-0.004 0,0 z m 0.42333,-0.51919 c -0.0232,-2.37305 -0.64735,-4.70088 -1.54605,-6.87418 -0.1951,-2.41901 2.56193,-3.19026 4.07055,-4.45615 0.75085,-0.85616 2.07823,-0.64102 1.46958,0.69613 0.21736,2.00681 1.61858,3.85532 1.12992,5.93116 -1.44818,1.83291 -3.31883,3.25607 -5.07356,4.77538 l -0.0506,-0.0724 z"
         id="path1614" /></g></g></svg>
